<svg xmlns="http://www.w3.org/2000/svg" xml:space="preserve" xmlns:xlink="http://www.w3.org/1999/xlink" style="max-width: 100%;height: auto;" width="990" height="990" viewBox="0 0 990 990">
<rect width="990" height="990" fill="#ffffff" x="0" y="0"></rect>
<g fill="#000000">
<g transform="translate(220,44) scale(3.7766666666667)"><rect width="6" height="6"></rect></g>
<g transform="translate(242,44) scale(3.7766666666667)"><rect width="6" height="6"></rect></g>
<g transform="translate(264,44) scale(3.7766666666667)"><rect width="6" height="6"></rect></g>
<g transform="translate(286,44) scale(3.7766666666667)"><rect width="6" height="6"></rect></g>
<g transform="translate(308,44) scale(3.7766666666667)"><rect width="6" height="6"></rect></g>
<g transform="translate(330,44) scale(3.7766666666667)"><rect width="6" height="6"></rect></g>
<g transform="translate(352,44) scale(3.7766666666667)"><rect width="6" height="6"></rect></g>
<g transform="translate(396,44) scale(3.7766666666667)"><rect width="6" height="6"></rect></g>
<g transform="translate(418,44) scale(3.7766666666667)"><rect width="6" height="6"></rect></g>
<g transform="translate(550,44) scale(3.7766666666667)"><rect width="6" height="6"></rect></g>
<g transform="translate(594,44) scale(3.7766666666667)"><rect width="6" height="6"></rect></g>
<g transform="translate(616,44) scale(3.7766666666667)"><rect width="6" height="6"></rect></g>
<g transform="translate(660,44) scale(3.7766666666667)"><rect width="6" height="6"></rect></g>
<g transform="translate(704,44) scale(3.7766666666667)"><rect width="6" height="6"></rect></g>
<g transform="translate(726,44) scale(3.7766666666667)"><rect width="6" height="6"></rect></g>
<g transform="translate(220,66) scale(3.7766666666667)"><rect width="6" height="6"></rect></g>
<g transform="translate(264,66) scale(3.7766666666667)"><rect width="6" height="6"></rect></g>
<g transform="translate(308,66) scale(3.7766666666667)"><rect width="6" height="6"></rect></g>
<g transform="translate(330,66) scale(3.7766666666667)"><rect width="6" height="6"></rect></g>
<g transform="translate(462,66) scale(3.7766666666667)"><rect width="6" height="6"></rect></g>
<g transform="translate(484,66) scale(3.7766666666667)"><rect width="6" height="6"></rect></g>
<g transform="translate(506,66) scale(3.7766666666667)"><rect width="6" height="6"></rect></g>
<g transform="translate(550,66) scale(3.7766666666667)"><rect width="6" height="6"></rect></g>
<g transform="translate(572,66) scale(3.7766666666667)"><rect width="6" height="6"></rect></g>
<g transform="translate(594,66) scale(3.7766666666667)"><rect width="6" height="6"></rect></g>
<g transform="translate(616,66) scale(3.7766666666667)"><rect width="6" height="6"></rect></g>
<g transform="translate(638,66) scale(3.7766666666667)"><rect width="6" height="6"></rect></g>
<g transform="translate(660,66) scale(3.7766666666667)"><rect width="6" height="6"></rect></g>
<g transform="translate(704,66) scale(3.7766666666667)"><rect width="6" height="6"></rect></g>
<g transform="translate(748,66) scale(3.7766666666667)"><rect width="6" height="6"></rect></g>
<g transform="translate(220,88) scale(3.7766666666667)"><rect width="6" height="6"></rect></g>
<g transform="translate(264,88) scale(3.7766666666667)"><rect width="6" height="6"></rect></g>
<g transform="translate(286,88) scale(3.7766666666667)"><rect width="6" height="6"></rect></g>
<g transform="translate(330,88) scale(3.7766666666667)"><rect width="6" height="6"></rect></g>
<g transform="translate(374,88) scale(3.7766666666667)"><rect width="6" height="6"></rect></g>
<g transform="translate(396,88) scale(3.7766666666667)"><rect width="6" height="6"></rect></g>
<g transform="translate(440,88) scale(3.7766666666667)"><rect width="6" height="6"></rect></g>
<g transform="translate(506,88) scale(3.7766666666667)"><rect width="6" height="6"></rect></g>
<g transform="translate(528,88) scale(3.7766666666667)"><rect width="6" height="6"></rect></g>
<g transform="translate(572,88) scale(3.7766666666667)"><rect width="6" height="6"></rect></g>
<g transform="translate(594,88) scale(3.7766666666667)"><rect width="6" height="6"></rect></g>
<g transform="translate(726,88) scale(3.7766666666667)"><rect width="6" height="6"></rect></g>
<g transform="translate(264,110) scale(3.7766666666667)"><rect width="6" height="6"></rect></g>
<g transform="translate(396,110) scale(3.7766666666667)"><rect width="6" height="6"></rect></g>
<g transform="translate(440,110) scale(3.7766666666667)"><rect width="6" height="6"></rect></g>
<g transform="translate(462,110) scale(3.7766666666667)"><rect width="6" height="6"></rect></g>
<g transform="translate(484,110) scale(3.7766666666667)"><rect width="6" height="6"></rect></g>
<g transform="translate(506,110) scale(3.7766666666667)"><rect width="6" height="6"></rect></g>
<g transform="translate(550,110) scale(3.7766666666667)"><rect width="6" height="6"></rect></g>
<g transform="translate(616,110) scale(3.7766666666667)"><rect width="6" height="6"></rect></g>
<g transform="translate(638,110) scale(3.7766666666667)"><rect width="6" height="6"></rect></g>
<g transform="translate(660,110) scale(3.7766666666667)"><rect width="6" height="6"></rect></g>
<g transform="translate(704,110) scale(3.7766666666667)"><rect width="6" height="6"></rect></g>
<g transform="translate(242,132) scale(3.7766666666667)"><rect width="6" height="6"></rect></g>
<g transform="translate(396,132) scale(3.7766666666667)"><rect width="6" height="6"></rect></g>
<g transform="translate(418,132) scale(3.7766666666667)"><rect width="6" height="6"></rect></g>
<g transform="translate(440,132) scale(3.7766666666667)"><rect width="6" height="6"></rect></g>
<g transform="translate(462,132) scale(3.7766666666667)"><rect width="6" height="6"></rect></g>
<g transform="translate(484,132) scale(3.7766666666667)"><rect width="6" height="6"></rect></g>
<g transform="translate(506,132) scale(3.7766666666667)"><rect width="6" height="6"></rect></g>
<g transform="translate(528,132) scale(3.7766666666667)"><rect width="6" height="6"></rect></g>
<g transform="translate(550,132) scale(3.7766666666667)"><rect width="6" height="6"></rect></g>
<g transform="translate(660,132) scale(3.7766666666667)"><rect width="6" height="6"></rect></g>
<g transform="translate(726,132) scale(3.7766666666667)"><rect width="6" height="6"></rect></g>
<g transform="translate(748,132) scale(3.7766666666667)"><rect width="6" height="6"></rect></g>
<g transform="translate(220,154) scale(3.7766666666667)"><rect width="6" height="6"></rect></g>
<g transform="translate(264,154) scale(3.7766666666667)"><rect width="6" height="6"></rect></g>
<g transform="translate(308,154) scale(3.7766666666667)"><rect width="6" height="6"></rect></g>
<g transform="translate(352,154) scale(3.7766666666667)"><rect width="6" height="6"></rect></g>
<g transform="translate(418,154) scale(3.7766666666667)"><rect width="6" height="6"></rect></g>
<g transform="translate(440,154) scale(3.7766666666667)"><rect width="6" height="6"></rect></g>
<g transform="translate(462,154) scale(3.7766666666667)"><rect width="6" height="6"></rect></g>
<g transform="translate(528,154) scale(3.7766666666667)"><rect width="6" height="6"></rect></g>
<g transform="translate(550,154) scale(3.7766666666667)"><rect width="6" height="6"></rect></g>
<g transform="translate(638,154) scale(3.7766666666667)"><rect width="6" height="6"></rect></g>
<g transform="translate(660,154) scale(3.7766666666667)"><rect width="6" height="6"></rect></g>
<g transform="translate(682,154) scale(3.7766666666667)"><rect width="6" height="6"></rect></g>
<g transform="translate(748,154) scale(3.7766666666667)"><rect width="6" height="6"></rect></g>
<g transform="translate(220,176) scale(3.7766666666667)"><rect width="6" height="6"></rect></g>
<g transform="translate(264,176) scale(3.7766666666667)"><rect width="6" height="6"></rect></g>
<g transform="translate(308,176) scale(3.7766666666667)"><rect width="6" height="6"></rect></g>
<g transform="translate(352,176) scale(3.7766666666667)"><rect width="6" height="6"></rect></g>
<g transform="translate(396,176) scale(3.7766666666667)"><rect width="6" height="6"></rect></g>
<g transform="translate(440,176) scale(3.7766666666667)"><rect width="6" height="6"></rect></g>
<g transform="translate(484,176) scale(3.7766666666667)"><rect width="6" height="6"></rect></g>
<g transform="translate(528,176) scale(3.7766666666667)"><rect width="6" height="6"></rect></g>
<g transform="translate(572,176) scale(3.7766666666667)"><rect width="6" height="6"></rect></g>
<g transform="translate(616,176) scale(3.7766666666667)"><rect width="6" height="6"></rect></g>
<g transform="translate(660,176) scale(3.7766666666667)"><rect width="6" height="6"></rect></g>
<g transform="translate(704,176) scale(3.7766666666667)"><rect width="6" height="6"></rect></g>
<g transform="translate(748,176) scale(3.7766666666667)"><rect width="6" height="6"></rect></g>
<g transform="translate(220,198) scale(3.7766666666667)"><rect width="6" height="6"></rect></g>
<g transform="translate(242,198) scale(3.7766666666667)"><rect width="6" height="6"></rect></g>
<g transform="translate(286,198) scale(3.7766666666667)"><rect width="6" height="6"></rect></g>
<g transform="translate(418,198) scale(3.7766666666667)"><rect width="6" height="6"></rect></g>
<g transform="translate(550,198) scale(3.7766666666667)"><rect width="6" height="6"></rect></g>
<g transform="translate(660,198) scale(3.7766666666667)"><rect width="6" height="6"></rect></g>
<g transform="translate(726,198) scale(3.7766666666667)"><rect width="6" height="6"></rect></g>
<g transform="translate(88,220) scale(3.7766666666667)"><rect width="6" height="6"></rect></g>
<g transform="translate(110,220) scale(3.7766666666667)"><rect width="6" height="6"></rect></g>
<g transform="translate(132,220) scale(3.7766666666667)"><rect width="6" height="6"></rect></g>
<g transform="translate(176,220) scale(3.7766666666667)"><rect width="6" height="6"></rect></g>
<g transform="translate(220,220) scale(3.7766666666667)"><rect width="6" height="6"></rect></g>
<g transform="translate(264,220) scale(3.7766666666667)"><rect width="6" height="6"></rect></g>
<g transform="translate(286,220) scale(3.7766666666667)"><rect width="6" height="6"></rect></g>
<g transform="translate(330,220) scale(3.7766666666667)"><rect width="6" height="6"></rect></g>
<g transform="translate(352,220) scale(3.7766666666667)"><rect width="6" height="6"></rect></g>
<g transform="translate(374,220) scale(3.7766666666667)"><rect width="6" height="6"></rect></g>
<g transform="translate(396,220) scale(3.7766666666667)"><rect width="6" height="6"></rect></g>
<g transform="translate(462,220) scale(3.7766666666667)"><rect width="6" height="6"></rect></g>
<g transform="translate(506,220) scale(3.7766666666667)"><rect width="6" height="6"></rect></g>
<g transform="translate(550,220) scale(3.7766666666667)"><rect width="6" height="6"></rect></g>
<g transform="translate(572,220) scale(3.7766666666667)"><rect width="6" height="6"></rect></g>
<g transform="translate(594,220) scale(3.7766666666667)"><rect width="6" height="6"></rect></g>
<g transform="translate(682,220) scale(3.7766666666667)"><rect width="6" height="6"></rect></g>
<g transform="translate(770,220) scale(3.7766666666667)"><rect width="6" height="6"></rect></g>
<g transform="translate(792,220) scale(3.7766666666667)"><rect width="6" height="6"></rect></g>
<g transform="translate(814,220) scale(3.7766666666667)"><rect width="6" height="6"></rect></g>
<g transform="translate(880,220) scale(3.7766666666667)"><rect width="6" height="6"></rect></g>
<g transform="translate(902,220) scale(3.7766666666667)"><rect width="6" height="6"></rect></g>
<g transform="translate(924,220) scale(3.7766666666667)"><rect width="6" height="6"></rect></g>
<g transform="translate(66,242) scale(3.7766666666667)"><rect width="6" height="6"></rect></g>
<g transform="translate(88,242) scale(3.7766666666667)"><rect width="6" height="6"></rect></g>
<g transform="translate(110,242) scale(3.7766666666667)"><rect width="6" height="6"></rect></g>
<g transform="translate(132,242) scale(3.7766666666667)"><rect width="6" height="6"></rect></g>
<g transform="translate(154,242) scale(3.7766666666667)"><rect width="6" height="6"></rect></g>
<g transform="translate(352,242) scale(3.7766666666667)"><rect width="6" height="6"></rect></g>
<g transform="translate(396,242) scale(3.7766666666667)"><rect width="6" height="6"></rect></g>
<g transform="translate(440,242) scale(3.7766666666667)"><rect width="6" height="6"></rect></g>
<g transform="translate(462,242) scale(3.7766666666667)"><rect width="6" height="6"></rect></g>
<g transform="translate(528,242) scale(3.7766666666667)"><rect width="6" height="6"></rect></g>
<g transform="translate(572,242) scale(3.7766666666667)"><rect width="6" height="6"></rect></g>
<g transform="translate(616,242) scale(3.7766666666667)"><rect width="6" height="6"></rect></g>
<g transform="translate(660,242) scale(3.7766666666667)"><rect width="6" height="6"></rect></g>
<g transform="translate(682,242) scale(3.7766666666667)"><rect width="6" height="6"></rect></g>
<g transform="translate(704,242) scale(3.7766666666667)"><rect width="6" height="6"></rect></g>
<g transform="translate(726,242) scale(3.7766666666667)"><rect width="6" height="6"></rect></g>
<g transform="translate(748,242) scale(3.7766666666667)"><rect width="6" height="6"></rect></g>
<g transform="translate(770,242) scale(3.7766666666667)"><rect width="6" height="6"></rect></g>
<g transform="translate(792,242) scale(3.7766666666667)"><rect width="6" height="6"></rect></g>
<g transform="translate(814,242) scale(3.7766666666667)"><rect width="6" height="6"></rect></g>
<g transform="translate(836,242) scale(3.7766666666667)"><rect width="6" height="6"></rect></g>
<g transform="translate(880,242) scale(3.7766666666667)"><rect width="6" height="6"></rect></g>
<g transform="translate(902,242) scale(3.7766666666667)"><rect width="6" height="6"></rect></g>
<g transform="translate(924,242) scale(3.7766666666667)"><rect width="6" height="6"></rect></g>
<g transform="translate(44,264) scale(3.7766666666667)"><rect width="6" height="6"></rect></g>
<g transform="translate(66,264) scale(3.7766666666667)"><rect width="6" height="6"></rect></g>
<g transform="translate(132,264) scale(3.7766666666667)"><rect width="6" height="6"></rect></g>
<g transform="translate(176,264) scale(3.7766666666667)"><rect width="6" height="6"></rect></g>
<g transform="translate(198,264) scale(3.7766666666667)"><rect width="6" height="6"></rect></g>
<g transform="translate(220,264) scale(3.7766666666667)"><rect width="6" height="6"></rect></g>
<g transform="translate(242,264) scale(3.7766666666667)"><rect width="6" height="6"></rect></g>
<g transform="translate(264,264) scale(3.7766666666667)"><rect width="6" height="6"></rect></g>
<g transform="translate(330,264) scale(3.7766666666667)"><rect width="6" height="6"></rect></g>
<g transform="translate(396,264) scale(3.7766666666667)"><rect width="6" height="6"></rect></g>
<g transform="translate(418,264) scale(3.7766666666667)"><rect width="6" height="6"></rect></g>
<g transform="translate(506,264) scale(3.7766666666667)"><rect width="6" height="6"></rect></g>
<g transform="translate(594,264) scale(3.7766666666667)"><rect width="6" height="6"></rect></g>
<g transform="translate(616,264) scale(3.7766666666667)"><rect width="6" height="6"></rect></g>
<g transform="translate(638,264) scale(3.7766666666667)"><rect width="6" height="6"></rect></g>
<g transform="translate(660,264) scale(3.7766666666667)"><rect width="6" height="6"></rect></g>
<g transform="translate(704,264) scale(3.7766666666667)"><rect width="6" height="6"></rect></g>
<g transform="translate(748,264) scale(3.7766666666667)"><rect width="6" height="6"></rect></g>
<g transform="translate(770,264) scale(3.7766666666667)"><rect width="6" height="6"></rect></g>
<g transform="translate(242,286) scale(3.7766666666667)"><rect width="6" height="6"></rect></g>
<g transform="translate(264,286) scale(3.7766666666667)"><rect width="6" height="6"></rect></g>
<g transform="translate(330,286) scale(3.7766666666667)"><rect width="6" height="6"></rect></g>
<g transform="translate(374,286) scale(3.7766666666667)"><rect width="6" height="6"></rect></g>
<g transform="translate(396,286) scale(3.7766666666667)"><rect width="6" height="6"></rect></g>
<g transform="translate(418,286) scale(3.7766666666667)"><rect width="6" height="6"></rect></g>
<g transform="translate(440,286) scale(3.7766666666667)"><rect width="6" height="6"></rect></g>
<g transform="translate(462,286) scale(3.7766666666667)"><rect width="6" height="6"></rect></g>
<g transform="translate(484,286) scale(3.7766666666667)"><rect width="6" height="6"></rect></g>
<g transform="translate(572,286) scale(3.7766666666667)"><rect width="6" height="6"></rect></g>
<g transform="translate(638,286) scale(3.7766666666667)"><rect width="6" height="6"></rect></g>
<g transform="translate(660,286) scale(3.7766666666667)"><rect width="6" height="6"></rect></g>
<g transform="translate(704,286) scale(3.7766666666667)"><rect width="6" height="6"></rect></g>
<g transform="translate(726,286) scale(3.7766666666667)"><rect width="6" height="6"></rect></g>
<g transform="translate(748,286) scale(3.7766666666667)"><rect width="6" height="6"></rect></g>
<g transform="translate(814,286) scale(3.7766666666667)"><rect width="6" height="6"></rect></g>
<g transform="translate(836,286) scale(3.7766666666667)"><rect width="6" height="6"></rect></g>
<g transform="translate(858,286) scale(3.7766666666667)"><rect width="6" height="6"></rect></g>
<g transform="translate(44,308) scale(3.7766666666667)"><rect width="6" height="6"></rect></g>
<g transform="translate(66,308) scale(3.7766666666667)"><rect width="6" height="6"></rect></g>
<g transform="translate(88,308) scale(3.7766666666667)"><rect width="6" height="6"></rect></g>
<g transform="translate(110,308) scale(3.7766666666667)"><rect width="6" height="6"></rect></g>
<g transform="translate(132,308) scale(3.7766666666667)"><rect width="6" height="6"></rect></g>
<g transform="translate(154,308) scale(3.7766666666667)"><rect width="6" height="6"></rect></g>
<g transform="translate(176,308) scale(3.7766666666667)"><rect width="6" height="6"></rect></g>
<g transform="translate(242,308) scale(3.7766666666667)"><rect width="6" height="6"></rect></g>
<g transform="translate(264,308) scale(3.7766666666667)"><rect width="6" height="6"></rect></g>
<g transform="translate(352,308) scale(3.7766666666667)"><rect width="6" height="6"></rect></g>
<g transform="translate(374,308) scale(3.7766666666667)"><rect width="6" height="6"></rect></g>
<g transform="translate(418,308) scale(3.7766666666667)"><rect width="6" height="6"></rect></g>
<g transform="translate(440,308) scale(3.7766666666667)"><rect width="6" height="6"></rect></g>
<g transform="translate(506,308) scale(3.7766666666667)"><rect width="6" height="6"></rect></g>
<g transform="translate(528,308) scale(3.7766666666667)"><rect width="6" height="6"></rect></g>
<g transform="translate(572,308) scale(3.7766666666667)"><rect width="6" height="6"></rect></g>
<g transform="translate(594,308) scale(3.7766666666667)"><rect width="6" height="6"></rect></g>
<g transform="translate(638,308) scale(3.7766666666667)"><rect width="6" height="6"></rect></g>
<g transform="translate(660,308) scale(3.7766666666667)"><rect width="6" height="6"></rect></g>
<g transform="translate(726,308) scale(3.7766666666667)"><rect width="6" height="6"></rect></g>
<g transform="translate(770,308) scale(3.7766666666667)"><rect width="6" height="6"></rect></g>
<g transform="translate(814,308) scale(3.7766666666667)"><rect width="6" height="6"></rect></g>
<g transform="translate(836,308) scale(3.7766666666667)"><rect width="6" height="6"></rect></g>
<g transform="translate(858,308) scale(3.7766666666667)"><rect width="6" height="6"></rect></g>
<g transform="translate(880,308) scale(3.7766666666667)"><rect width="6" height="6"></rect></g>
<g transform="translate(924,308) scale(3.7766666666667)"><rect width="6" height="6"></rect></g>
<g transform="translate(88,330) scale(3.7766666666667)"><rect width="6" height="6"></rect></g>
<g transform="translate(110,330) scale(3.7766666666667)"><rect width="6" height="6"></rect></g>
<g transform="translate(132,330) scale(3.7766666666667)"><rect width="6" height="6"></rect></g>
<g transform="translate(154,330) scale(3.7766666666667)"><rect width="6" height="6"></rect></g>
<g transform="translate(220,330) scale(3.7766666666667)"><rect width="6" height="6"></rect></g>
<g transform="translate(330,330) scale(3.7766666666667)"><rect width="6" height="6"></rect></g>
<g transform="translate(352,330) scale(3.7766666666667)"><rect width="6" height="6"></rect></g>
<g transform="translate(396,330) scale(3.7766666666667)"><rect width="6" height="6"></rect></g>
<g transform="translate(418,330) scale(3.7766666666667)"><rect width="6" height="6"></rect></g>
<g transform="translate(484,330) scale(3.7766666666667)"><rect width="6" height="6"></rect></g>
<g transform="translate(550,330) scale(3.7766666666667)"><rect width="6" height="6"></rect></g>
<g transform="translate(594,330) scale(3.7766666666667)"><rect width="6" height="6"></rect></g>
<g transform="translate(638,330) scale(3.7766666666667)"><rect width="6" height="6"></rect></g>
<g transform="translate(682,330) scale(3.7766666666667)"><rect width="6" height="6"></rect></g>
<g transform="translate(704,330) scale(3.7766666666667)"><rect width="6" height="6"></rect></g>
<g transform="translate(748,330) scale(3.7766666666667)"><rect width="6" height="6"></rect></g>
<g transform="translate(770,330) scale(3.7766666666667)"><rect width="6" height="6"></rect></g>
<g transform="translate(814,330) scale(3.7766666666667)"><rect width="6" height="6"></rect></g>
<g transform="translate(836,330) scale(3.7766666666667)"><rect width="6" height="6"></rect></g>
<g transform="translate(924,330) scale(3.7766666666667)"><rect width="6" height="6"></rect></g>
<g transform="translate(88,352) scale(3.7766666666667)"><rect width="6" height="6"></rect></g>
<g transform="translate(110,352) scale(3.7766666666667)"><rect width="6" height="6"></rect></g>
<g transform="translate(132,352) scale(3.7766666666667)"><rect width="6" height="6"></rect></g>
<g transform="translate(176,352) scale(3.7766666666667)"><rect width="6" height="6"></rect></g>
<g transform="translate(198,352) scale(3.7766666666667)"><rect width="6" height="6"></rect></g>
<g transform="translate(286,352) scale(3.7766666666667)"><rect width="6" height="6"></rect></g>
<g transform="translate(330,352) scale(3.7766666666667)"><rect width="6" height="6"></rect></g>
<g transform="translate(440,352) scale(3.7766666666667)"><rect width="6" height="6"></rect></g>
<g transform="translate(572,352) scale(3.7766666666667)"><rect width="6" height="6"></rect></g>
<g transform="translate(594,352) scale(3.7766666666667)"><rect width="6" height="6"></rect></g>
<g transform="translate(638,352) scale(3.7766666666667)"><rect width="6" height="6"></rect></g>
<g transform="translate(660,352) scale(3.7766666666667)"><rect width="6" height="6"></rect></g>
<g transform="translate(682,352) scale(3.7766666666667)"><rect width="6" height="6"></rect></g>
<g transform="translate(726,352) scale(3.7766666666667)"><rect width="6" height="6"></rect></g>
<g transform="translate(770,352) scale(3.7766666666667)"><rect width="6" height="6"></rect></g>
<g transform="translate(814,352) scale(3.7766666666667)"><rect width="6" height="6"></rect></g>
<g transform="translate(858,352) scale(3.7766666666667)"><rect width="6" height="6"></rect></g>
<g transform="translate(880,352) scale(3.7766666666667)"><rect width="6" height="6"></rect></g>
<g transform="translate(66,374) scale(3.7766666666667)"><rect width="6" height="6"></rect></g>
<g transform="translate(88,374) scale(3.7766666666667)"><rect width="6" height="6"></rect></g>
<g transform="translate(110,374) scale(3.7766666666667)"><rect width="6" height="6"></rect></g>
<g transform="translate(132,374) scale(3.7766666666667)"><rect width="6" height="6"></rect></g>
<g transform="translate(154,374) scale(3.7766666666667)"><rect width="6" height="6"></rect></g>
<g transform="translate(220,374) scale(3.7766666666667)"><rect width="6" height="6"></rect></g>
<g transform="translate(242,374) scale(3.7766666666667)"><rect width="6" height="6"></rect></g>
<g transform="translate(264,374) scale(3.7766666666667)"><rect width="6" height="6"></rect></g>
<g transform="translate(308,374) scale(3.7766666666667)"><rect width="6" height="6"></rect></g>
<g transform="translate(396,374) scale(3.7766666666667)"><rect width="6" height="6"></rect></g>
<g transform="translate(418,374) scale(3.7766666666667)"><rect width="6" height="6"></rect></g>
<g transform="translate(440,374) scale(3.7766666666667)"><rect width="6" height="6"></rect></g>
<g transform="translate(462,374) scale(3.7766666666667)"><rect width="6" height="6"></rect></g>
<g transform="translate(484,374) scale(3.7766666666667)"><rect width="6" height="6"></rect></g>
<g transform="translate(528,374) scale(3.7766666666667)"><rect width="6" height="6"></rect></g>
<g transform="translate(638,374) scale(3.7766666666667)"><rect width="6" height="6"></rect></g>
<g transform="translate(726,374) scale(3.7766666666667)"><rect width="6" height="6"></rect></g>
<g transform="translate(748,374) scale(3.7766666666667)"><rect width="6" height="6"></rect></g>
<g transform="translate(792,374) scale(3.7766666666667)"><rect width="6" height="6"></rect></g>
<g transform="translate(814,374) scale(3.7766666666667)"><rect width="6" height="6"></rect></g>
<g transform="translate(858,374) scale(3.7766666666667)"><rect width="6" height="6"></rect></g>
<g transform="translate(924,374) scale(3.7766666666667)"><rect width="6" height="6"></rect></g>
<g transform="translate(44,396) scale(3.7766666666667)"><rect width="6" height="6"></rect></g>
<g transform="translate(66,396) scale(3.7766666666667)"><rect width="6" height="6"></rect></g>
<g transform="translate(110,396) scale(3.7766666666667)"><rect width="6" height="6"></rect></g>
<g transform="translate(154,396) scale(3.7766666666667)"><rect width="6" height="6"></rect></g>
<g transform="translate(176,396) scale(3.7766666666667)"><rect width="6" height="6"></rect></g>
<g transform="translate(198,396) scale(3.7766666666667)"><rect width="6" height="6"></rect></g>
<g transform="translate(220,396) scale(3.7766666666667)"><rect width="6" height="6"></rect></g>
<g transform="translate(264,396) scale(3.7766666666667)"><rect width="6" height="6"></rect></g>
<g transform="translate(286,396) scale(3.7766666666667)"><rect width="6" height="6"></rect></g>
<g transform="translate(308,396) scale(3.7766666666667)"><rect width="6" height="6"></rect></g>
<g transform="translate(374,396) scale(3.7766666666667)"><rect width="6" height="6"></rect></g>
<g transform="translate(440,396) scale(3.7766666666667)"><rect width="6" height="6"></rect></g>
<g transform="translate(528,396) scale(3.7766666666667)"><rect width="6" height="6"></rect></g>
<g transform="translate(616,396) scale(3.7766666666667)"><rect width="6" height="6"></rect></g>
<g transform="translate(638,396) scale(3.7766666666667)"><rect width="6" height="6"></rect></g>
<g transform="translate(660,396) scale(3.7766666666667)"><rect width="6" height="6"></rect></g>
<g transform="translate(726,396) scale(3.7766666666667)"><rect width="6" height="6"></rect></g>
<g transform="translate(748,396) scale(3.7766666666667)"><rect width="6" height="6"></rect></g>
<g transform="translate(770,396) scale(3.7766666666667)"><rect width="6" height="6"></rect></g>
<g transform="translate(814,396) scale(3.7766666666667)"><rect width="6" height="6"></rect></g>
<g transform="translate(880,396) scale(3.7766666666667)"><rect width="6" height="6"></rect></g>
<g transform="translate(902,396) scale(3.7766666666667)"><rect width="6" height="6"></rect></g>
<g transform="translate(66,418) scale(3.7766666666667)"><rect width="6" height="6"></rect></g>
<g transform="translate(132,418) scale(3.7766666666667)"><rect width="6" height="6"></rect></g>
<g transform="translate(198,418) scale(3.7766666666667)"><rect width="6" height="6"></rect></g>
<g transform="translate(220,418) scale(3.7766666666667)"><rect width="6" height="6"></rect></g>
<g transform="translate(242,418) scale(3.7766666666667)"><rect width="6" height="6"></rect></g>
<g transform="translate(308,418) scale(3.7766666666667)"><rect width="6" height="6"></rect></g>
<g transform="translate(374,418) scale(3.7766666666667)"><rect width="6" height="6"></rect></g>
<g transform="translate(396,418) scale(3.7766666666667)"><rect width="6" height="6"></rect></g>
<g transform="translate(440,418) scale(3.7766666666667)"><rect width="6" height="6"></rect></g>
<g transform="translate(484,418) scale(3.7766666666667)"><rect width="6" height="6"></rect></g>
<g transform="translate(550,418) scale(3.7766666666667)"><rect width="6" height="6"></rect></g>
<g transform="translate(572,418) scale(3.7766666666667)"><rect width="6" height="6"></rect></g>
<g transform="translate(594,418) scale(3.7766666666667)"><rect width="6" height="6"></rect></g>
<g transform="translate(660,418) scale(3.7766666666667)"><rect width="6" height="6"></rect></g>
<g transform="translate(682,418) scale(3.7766666666667)"><rect width="6" height="6"></rect></g>
<g transform="translate(704,418) scale(3.7766666666667)"><rect width="6" height="6"></rect></g>
<g transform="translate(726,418) scale(3.7766666666667)"><rect width="6" height="6"></rect></g>
<g transform="translate(748,418) scale(3.7766666666667)"><rect width="6" height="6"></rect></g>
<g transform="translate(792,418) scale(3.7766666666667)"><rect width="6" height="6"></rect></g>
<g transform="translate(814,418) scale(3.7766666666667)"><rect width="6" height="6"></rect></g>
<g transform="translate(836,418) scale(3.7766666666667)"><rect width="6" height="6"></rect></g>
<g transform="translate(858,418) scale(3.7766666666667)"><rect width="6" height="6"></rect></g>
<g transform="translate(902,418) scale(3.7766666666667)"><rect width="6" height="6"></rect></g>
<g transform="translate(924,418) scale(3.7766666666667)"><rect width="6" height="6"></rect></g>
<g transform="translate(66,440) scale(3.7766666666667)"><rect width="6" height="6"></rect></g>
<g transform="translate(88,440) scale(3.7766666666667)"><rect width="6" height="6"></rect></g>
<g transform="translate(176,440) scale(3.7766666666667)"><rect width="6" height="6"></rect></g>
<g transform="translate(264,440) scale(3.7766666666667)"><rect width="6" height="6"></rect></g>
<g transform="translate(286,440) scale(3.7766666666667)"><rect width="6" height="6"></rect></g>
<g transform="translate(330,440) scale(3.7766666666667)"><rect width="6" height="6"></rect></g>
<g transform="translate(374,440) scale(3.7766666666667)"><rect width="6" height="6"></rect></g>
<g transform="translate(418,440) scale(3.7766666666667)"><rect width="6" height="6"></rect></g>
<g transform="translate(440,440) scale(3.7766666666667)"><rect width="6" height="6"></rect></g>
<g transform="translate(550,440) scale(3.7766666666667)"><rect width="6" height="6"></rect></g>
<g transform="translate(594,440) scale(3.7766666666667)"><rect width="6" height="6"></rect></g>
<g transform="translate(616,440) scale(3.7766666666667)"><rect width="6" height="6"></rect></g>
<g transform="translate(638,440) scale(3.7766666666667)"><rect width="6" height="6"></rect></g>
<g transform="translate(660,440) scale(3.7766666666667)"><rect width="6" height="6"></rect></g>
<g transform="translate(682,440) scale(3.7766666666667)"><rect width="6" height="6"></rect></g>
<g transform="translate(748,440) scale(3.7766666666667)"><rect width="6" height="6"></rect></g>
<g transform="translate(836,440) scale(3.7766666666667)"><rect width="6" height="6"></rect></g>
<g transform="translate(88,462) scale(3.7766666666667)"><rect width="6" height="6"></rect></g>
<g transform="translate(308,462) scale(3.7766666666667)"><rect width="6" height="6"></rect></g>
<g transform="translate(418,462) scale(3.7766666666667)"><rect width="6" height="6"></rect></g>
<g transform="translate(484,462) scale(3.7766666666667)"><rect width="6" height="6"></rect></g>
<g transform="translate(506,462) scale(3.7766666666667)"><rect width="6" height="6"></rect></g>
<g transform="translate(550,462) scale(3.7766666666667)"><rect width="6" height="6"></rect></g>
<g transform="translate(572,462) scale(3.7766666666667)"><rect width="6" height="6"></rect></g>
<g transform="translate(594,462) scale(3.7766666666667)"><rect width="6" height="6"></rect></g>
<g transform="translate(616,462) scale(3.7766666666667)"><rect width="6" height="6"></rect></g>
<g transform="translate(638,462) scale(3.7766666666667)"><rect width="6" height="6"></rect></g>
<g transform="translate(660,462) scale(3.7766666666667)"><rect width="6" height="6"></rect></g>
<g transform="translate(682,462) scale(3.7766666666667)"><rect width="6" height="6"></rect></g>
<g transform="translate(704,462) scale(3.7766666666667)"><rect width="6" height="6"></rect></g>
<g transform="translate(726,462) scale(3.7766666666667)"><rect width="6" height="6"></rect></g>
<g transform="translate(748,462) scale(3.7766666666667)"><rect width="6" height="6"></rect></g>
<g transform="translate(792,462) scale(3.7766666666667)"><rect width="6" height="6"></rect></g>
<g transform="translate(836,462) scale(3.7766666666667)"><rect width="6" height="6"></rect></g>
<g transform="translate(858,462) scale(3.7766666666667)"><rect width="6" height="6"></rect></g>
<g transform="translate(902,462) scale(3.7766666666667)"><rect width="6" height="6"></rect></g>
<g transform="translate(924,462) scale(3.7766666666667)"><rect width="6" height="6"></rect></g>
<g transform="translate(66,484) scale(3.7766666666667)"><rect width="6" height="6"></rect></g>
<g transform="translate(88,484) scale(3.7766666666667)"><rect width="6" height="6"></rect></g>
<g transform="translate(110,484) scale(3.7766666666667)"><rect width="6" height="6"></rect></g>
<g transform="translate(176,484) scale(3.7766666666667)"><rect width="6" height="6"></rect></g>
<g transform="translate(242,484) scale(3.7766666666667)"><rect width="6" height="6"></rect></g>
<g transform="translate(264,484) scale(3.7766666666667)"><rect width="6" height="6"></rect></g>
<g transform="translate(286,484) scale(3.7766666666667)"><rect width="6" height="6"></rect></g>
<g transform="translate(308,484) scale(3.7766666666667)"><rect width="6" height="6"></rect></g>
<g transform="translate(572,484) scale(3.7766666666667)"><rect width="6" height="6"></rect></g>
<g transform="translate(638,484) scale(3.7766666666667)"><rect width="6" height="6"></rect></g>
<g transform="translate(924,484) scale(3.7766666666667)"><rect width="6" height="6"></rect></g>
<g transform="translate(44,506) scale(3.7766666666667)"><rect width="6" height="6"></rect></g>
<g transform="translate(88,506) scale(3.7766666666667)"><rect width="6" height="6"></rect></g>
<g transform="translate(110,506) scale(3.7766666666667)"><rect width="6" height="6"></rect></g>
<g transform="translate(198,506) scale(3.7766666666667)"><rect width="6" height="6"></rect></g>
<g transform="translate(264,506) scale(3.7766666666667)"><rect width="6" height="6"></rect></g>
<g transform="translate(286,506) scale(3.7766666666667)"><rect width="6" height="6"></rect></g>
<g transform="translate(308,506) scale(3.7766666666667)"><rect width="6" height="6"></rect></g>
<g transform="translate(330,506) scale(3.7766666666667)"><rect width="6" height="6"></rect></g>
<g transform="translate(374,506) scale(3.7766666666667)"><rect width="6" height="6"></rect></g>
<g transform="translate(418,506) scale(3.7766666666667)"><rect width="6" height="6"></rect></g>
<g transform="translate(462,506) scale(3.7766666666667)"><rect width="6" height="6"></rect></g>
<g transform="translate(506,506) scale(3.7766666666667)"><rect width="6" height="6"></rect></g>
<g transform="translate(594,506) scale(3.7766666666667)"><rect width="6" height="6"></rect></g>
<g transform="translate(616,506) scale(3.7766666666667)"><rect width="6" height="6"></rect></g>
<g transform="translate(660,506) scale(3.7766666666667)"><rect width="6" height="6"></rect></g>
<g transform="translate(682,506) scale(3.7766666666667)"><rect width="6" height="6"></rect></g>
<g transform="translate(704,506) scale(3.7766666666667)"><rect width="6" height="6"></rect></g>
<g transform="translate(726,506) scale(3.7766666666667)"><rect width="6" height="6"></rect></g>
<g transform="translate(748,506) scale(3.7766666666667)"><rect width="6" height="6"></rect></g>
<g transform="translate(770,506) scale(3.7766666666667)"><rect width="6" height="6"></rect></g>
<g transform="translate(792,506) scale(3.7766666666667)"><rect width="6" height="6"></rect></g>
<g transform="translate(814,506) scale(3.7766666666667)"><rect width="6" height="6"></rect></g>
<g transform="translate(836,506) scale(3.7766666666667)"><rect width="6" height="6"></rect></g>
<g transform="translate(902,506) scale(3.7766666666667)"><rect width="6" height="6"></rect></g>
<g transform="translate(924,506) scale(3.7766666666667)"><rect width="6" height="6"></rect></g>
<g transform="translate(44,528) scale(3.7766666666667)"><rect width="6" height="6"></rect></g>
<g transform="translate(66,528) scale(3.7766666666667)"><rect width="6" height="6"></rect></g>
<g transform="translate(88,528) scale(3.7766666666667)"><rect width="6" height="6"></rect></g>
<g transform="translate(110,528) scale(3.7766666666667)"><rect width="6" height="6"></rect></g>
<g transform="translate(132,528) scale(3.7766666666667)"><rect width="6" height="6"></rect></g>
<g transform="translate(154,528) scale(3.7766666666667)"><rect width="6" height="6"></rect></g>
<g transform="translate(176,528) scale(3.7766666666667)"><rect width="6" height="6"></rect></g>
<g transform="translate(220,528) scale(3.7766666666667)"><rect width="6" height="6"></rect></g>
<g transform="translate(242,528) scale(3.7766666666667)"><rect width="6" height="6"></rect></g>
<g transform="translate(264,528) scale(3.7766666666667)"><rect width="6" height="6"></rect></g>
<g transform="translate(330,528) scale(3.7766666666667)"><rect width="6" height="6"></rect></g>
<g transform="translate(396,528) scale(3.7766666666667)"><rect width="6" height="6"></rect></g>
<g transform="translate(418,528) scale(3.7766666666667)"><rect width="6" height="6"></rect></g>
<g transform="translate(440,528) scale(3.7766666666667)"><rect width="6" height="6"></rect></g>
<g transform="translate(462,528) scale(3.7766666666667)"><rect width="6" height="6"></rect></g>
<g transform="translate(528,528) scale(3.7766666666667)"><rect width="6" height="6"></rect></g>
<g transform="translate(572,528) scale(3.7766666666667)"><rect width="6" height="6"></rect></g>
<g transform="translate(638,528) scale(3.7766666666667)"><rect width="6" height="6"></rect></g>
<g transform="translate(704,528) scale(3.7766666666667)"><rect width="6" height="6"></rect></g>
<g transform="translate(792,528) scale(3.7766666666667)"><rect width="6" height="6"></rect></g>
<g transform="translate(814,528) scale(3.7766666666667)"><rect width="6" height="6"></rect></g>
<g transform="translate(836,528) scale(3.7766666666667)"><rect width="6" height="6"></rect></g>
<g transform="translate(858,528) scale(3.7766666666667)"><rect width="6" height="6"></rect></g>
<g transform="translate(66,550) scale(3.7766666666667)"><rect width="6" height="6"></rect></g>
<g transform="translate(110,550) scale(3.7766666666667)"><rect width="6" height="6"></rect></g>
<g transform="translate(154,550) scale(3.7766666666667)"><rect width="6" height="6"></rect></g>
<g transform="translate(198,550) scale(3.7766666666667)"><rect width="6" height="6"></rect></g>
<g transform="translate(308,550) scale(3.7766666666667)"><rect width="6" height="6"></rect></g>
<g transform="translate(352,550) scale(3.7766666666667)"><rect width="6" height="6"></rect></g>
<g transform="translate(374,550) scale(3.7766666666667)"><rect width="6" height="6"></rect></g>
<g transform="translate(396,550) scale(3.7766666666667)"><rect width="6" height="6"></rect></g>
<g transform="translate(484,550) scale(3.7766666666667)"><rect width="6" height="6"></rect></g>
<g transform="translate(506,550) scale(3.7766666666667)"><rect width="6" height="6"></rect></g>
<g transform="translate(528,550) scale(3.7766666666667)"><rect width="6" height="6"></rect></g>
<g transform="translate(550,550) scale(3.7766666666667)"><rect width="6" height="6"></rect></g>
<g transform="translate(594,550) scale(3.7766666666667)"><rect width="6" height="6"></rect></g>
<g transform="translate(748,550) scale(3.7766666666667)"><rect width="6" height="6"></rect></g>
<g transform="translate(770,550) scale(3.7766666666667)"><rect width="6" height="6"></rect></g>
<g transform="translate(858,550) scale(3.7766666666667)"><rect width="6" height="6"></rect></g>
<g transform="translate(44,572) scale(3.7766666666667)"><rect width="6" height="6"></rect></g>
<g transform="translate(66,572) scale(3.7766666666667)"><rect width="6" height="6"></rect></g>
<g transform="translate(132,572) scale(3.7766666666667)"><rect width="6" height="6"></rect></g>
<g transform="translate(176,572) scale(3.7766666666667)"><rect width="6" height="6"></rect></g>
<g transform="translate(220,572) scale(3.7766666666667)"><rect width="6" height="6"></rect></g>
<g transform="translate(242,572) scale(3.7766666666667)"><rect width="6" height="6"></rect></g>
<g transform="translate(264,572) scale(3.7766666666667)"><rect width="6" height="6"></rect></g>
<g transform="translate(286,572) scale(3.7766666666667)"><rect width="6" height="6"></rect></g>
<g transform="translate(352,572) scale(3.7766666666667)"><rect width="6" height="6"></rect></g>
<g transform="translate(374,572) scale(3.7766666666667)"><rect width="6" height="6"></rect></g>
<g transform="translate(418,572) scale(3.7766666666667)"><rect width="6" height="6"></rect></g>
<g transform="translate(440,572) scale(3.7766666666667)"><rect width="6" height="6"></rect></g>
<g transform="translate(484,572) scale(3.7766666666667)"><rect width="6" height="6"></rect></g>
<g transform="translate(528,572) scale(3.7766666666667)"><rect width="6" height="6"></rect></g>
<g transform="translate(660,572) scale(3.7766666666667)"><rect width="6" height="6"></rect></g>
<g transform="translate(682,572) scale(3.7766666666667)"><rect width="6" height="6"></rect></g>
<g transform="translate(836,572) scale(3.7766666666667)"><rect width="6" height="6"></rect></g>
<g transform="translate(880,572) scale(3.7766666666667)"><rect width="6" height="6"></rect></g>
<g transform="translate(902,572) scale(3.7766666666667)"><rect width="6" height="6"></rect></g>
<g transform="translate(88,594) scale(3.7766666666667)"><rect width="6" height="6"></rect></g>
<g transform="translate(110,594) scale(3.7766666666667)"><rect width="6" height="6"></rect></g>
<g transform="translate(220,594) scale(3.7766666666667)"><rect width="6" height="6"></rect></g>
<g transform="translate(264,594) scale(3.7766666666667)"><rect width="6" height="6"></rect></g>
<g transform="translate(286,594) scale(3.7766666666667)"><rect width="6" height="6"></rect></g>
<g transform="translate(308,594) scale(3.7766666666667)"><rect width="6" height="6"></rect></g>
<g transform="translate(418,594) scale(3.7766666666667)"><rect width="6" height="6"></rect></g>
<g transform="translate(462,594) scale(3.7766666666667)"><rect width="6" height="6"></rect></g>
<g transform="translate(528,594) scale(3.7766666666667)"><rect width="6" height="6"></rect></g>
<g transform="translate(550,594) scale(3.7766666666667)"><rect width="6" height="6"></rect></g>
<g transform="translate(572,594) scale(3.7766666666667)"><rect width="6" height="6"></rect></g>
<g transform="translate(660,594) scale(3.7766666666667)"><rect width="6" height="6"></rect></g>
<g transform="translate(682,594) scale(3.7766666666667)"><rect width="6" height="6"></rect></g>
<g transform="translate(726,594) scale(3.7766666666667)"><rect width="6" height="6"></rect></g>
<g transform="translate(770,594) scale(3.7766666666667)"><rect width="6" height="6"></rect></g>
<g transform="translate(792,594) scale(3.7766666666667)"><rect width="6" height="6"></rect></g>
<g transform="translate(814,594) scale(3.7766666666667)"><rect width="6" height="6"></rect></g>
<g transform="translate(836,594) scale(3.7766666666667)"><rect width="6" height="6"></rect></g>
<g transform="translate(858,594) scale(3.7766666666667)"><rect width="6" height="6"></rect></g>
<g transform="translate(902,594) scale(3.7766666666667)"><rect width="6" height="6"></rect></g>
<g transform="translate(66,616) scale(3.7766666666667)"><rect width="6" height="6"></rect></g>
<g transform="translate(88,616) scale(3.7766666666667)"><rect width="6" height="6"></rect></g>
<g transform="translate(110,616) scale(3.7766666666667)"><rect width="6" height="6"></rect></g>
<g transform="translate(154,616) scale(3.7766666666667)"><rect width="6" height="6"></rect></g>
<g transform="translate(176,616) scale(3.7766666666667)"><rect width="6" height="6"></rect></g>
<g transform="translate(264,616) scale(3.7766666666667)"><rect width="6" height="6"></rect></g>
<g transform="translate(308,616) scale(3.7766666666667)"><rect width="6" height="6"></rect></g>
<g transform="translate(352,616) scale(3.7766666666667)"><rect width="6" height="6"></rect></g>
<g transform="translate(374,616) scale(3.7766666666667)"><rect width="6" height="6"></rect></g>
<g transform="translate(418,616) scale(3.7766666666667)"><rect width="6" height="6"></rect></g>
<g transform="translate(506,616) scale(3.7766666666667)"><rect width="6" height="6"></rect></g>
<g transform="translate(528,616) scale(3.7766666666667)"><rect width="6" height="6"></rect></g>
<g transform="translate(550,616) scale(3.7766666666667)"><rect width="6" height="6"></rect></g>
<g transform="translate(594,616) scale(3.7766666666667)"><rect width="6" height="6"></rect></g>
<g transform="translate(638,616) scale(3.7766666666667)"><rect width="6" height="6"></rect></g>
<g transform="translate(748,616) scale(3.7766666666667)"><rect width="6" height="6"></rect></g>
<g transform="translate(792,616) scale(3.7766666666667)"><rect width="6" height="6"></rect></g>
<g transform="translate(814,616) scale(3.7766666666667)"><rect width="6" height="6"></rect></g>
<g transform="translate(836,616) scale(3.7766666666667)"><rect width="6" height="6"></rect></g>
<g transform="translate(198,638) scale(3.7766666666667)"><rect width="6" height="6"></rect></g>
<g transform="translate(242,638) scale(3.7766666666667)"><rect width="6" height="6"></rect></g>
<g transform="translate(264,638) scale(3.7766666666667)"><rect width="6" height="6"></rect></g>
<g transform="translate(286,638) scale(3.7766666666667)"><rect width="6" height="6"></rect></g>
<g transform="translate(330,638) scale(3.7766666666667)"><rect width="6" height="6"></rect></g>
<g transform="translate(374,638) scale(3.7766666666667)"><rect width="6" height="6"></rect></g>
<g transform="translate(484,638) scale(3.7766666666667)"><rect width="6" height="6"></rect></g>
<g transform="translate(506,638) scale(3.7766666666667)"><rect width="6" height="6"></rect></g>
<g transform="translate(550,638) scale(3.7766666666667)"><rect width="6" height="6"></rect></g>
<g transform="translate(572,638) scale(3.7766666666667)"><rect width="6" height="6"></rect></g>
<g transform="translate(594,638) scale(3.7766666666667)"><rect width="6" height="6"></rect></g>
<g transform="translate(616,638) scale(3.7766666666667)"><rect width="6" height="6"></rect></g>
<g transform="translate(638,638) scale(3.7766666666667)"><rect width="6" height="6"></rect></g>
<g transform="translate(726,638) scale(3.7766666666667)"><rect width="6" height="6"></rect></g>
<g transform="translate(748,638) scale(3.7766666666667)"><rect width="6" height="6"></rect></g>
<g transform="translate(770,638) scale(3.7766666666667)"><rect width="6" height="6"></rect></g>
<g transform="translate(792,638) scale(3.7766666666667)"><rect width="6" height="6"></rect></g>
<g transform="translate(858,638) scale(3.7766666666667)"><rect width="6" height="6"></rect></g>
<g transform="translate(902,638) scale(3.7766666666667)"><rect width="6" height="6"></rect></g>
<g transform="translate(66,660) scale(3.7766666666667)"><rect width="6" height="6"></rect></g>
<g transform="translate(110,660) scale(3.7766666666667)"><rect width="6" height="6"></rect></g>
<g transform="translate(154,660) scale(3.7766666666667)"><rect width="6" height="6"></rect></g>
<g transform="translate(176,660) scale(3.7766666666667)"><rect width="6" height="6"></rect></g>
<g transform="translate(220,660) scale(3.7766666666667)"><rect width="6" height="6"></rect></g>
<g transform="translate(264,660) scale(3.7766666666667)"><rect width="6" height="6"></rect></g>
<g transform="translate(330,660) scale(3.7766666666667)"><rect width="6" height="6"></rect></g>
<g transform="translate(374,660) scale(3.7766666666667)"><rect width="6" height="6"></rect></g>
<g transform="translate(418,660) scale(3.7766666666667)"><rect width="6" height="6"></rect></g>
<g transform="translate(440,660) scale(3.7766666666667)"><rect width="6" height="6"></rect></g>
<g transform="translate(462,660) scale(3.7766666666667)"><rect width="6" height="6"></rect></g>
<g transform="translate(484,660) scale(3.7766666666667)"><rect width="6" height="6"></rect></g>
<g transform="translate(572,660) scale(3.7766666666667)"><rect width="6" height="6"></rect></g>
<g transform="translate(594,660) scale(3.7766666666667)"><rect width="6" height="6"></rect></g>
<g transform="translate(616,660) scale(3.7766666666667)"><rect width="6" height="6"></rect></g>
<g transform="translate(682,660) scale(3.7766666666667)"><rect width="6" height="6"></rect></g>
<g transform="translate(726,660) scale(3.7766666666667)"><rect width="6" height="6"></rect></g>
<g transform="translate(748,660) scale(3.7766666666667)"><rect width="6" height="6"></rect></g>
<g transform="translate(792,660) scale(3.7766666666667)"><rect width="6" height="6"></rect></g>
<g transform="translate(858,660) scale(3.7766666666667)"><rect width="6" height="6"></rect></g>
<g transform="translate(880,660) scale(3.7766666666667)"><rect width="6" height="6"></rect></g>
<g transform="translate(44,682) scale(3.7766666666667)"><rect width="6" height="6"></rect></g>
<g transform="translate(132,682) scale(3.7766666666667)"><rect width="6" height="6"></rect></g>
<g transform="translate(154,682) scale(3.7766666666667)"><rect width="6" height="6"></rect></g>
<g transform="translate(220,682) scale(3.7766666666667)"><rect width="6" height="6"></rect></g>
<g transform="translate(264,682) scale(3.7766666666667)"><rect width="6" height="6"></rect></g>
<g transform="translate(330,682) scale(3.7766666666667)"><rect width="6" height="6"></rect></g>
<g transform="translate(418,682) scale(3.7766666666667)"><rect width="6" height="6"></rect></g>
<g transform="translate(440,682) scale(3.7766666666667)"><rect width="6" height="6"></rect></g>
<g transform="translate(506,682) scale(3.7766666666667)"><rect width="6" height="6"></rect></g>
<g transform="translate(550,682) scale(3.7766666666667)"><rect width="6" height="6"></rect></g>
<g transform="translate(572,682) scale(3.7766666666667)"><rect width="6" height="6"></rect></g>
<g transform="translate(594,682) scale(3.7766666666667)"><rect width="6" height="6"></rect></g>
<g transform="translate(616,682) scale(3.7766666666667)"><rect width="6" height="6"></rect></g>
<g transform="translate(638,682) scale(3.7766666666667)"><rect width="6" height="6"></rect></g>
<g transform="translate(660,682) scale(3.7766666666667)"><rect width="6" height="6"></rect></g>
<g transform="translate(682,682) scale(3.7766666666667)"><rect width="6" height="6"></rect></g>
<g transform="translate(704,682) scale(3.7766666666667)"><rect width="6" height="6"></rect></g>
<g transform="translate(770,682) scale(3.7766666666667)"><rect width="6" height="6"></rect></g>
<g transform="translate(836,682) scale(3.7766666666667)"><rect width="6" height="6"></rect></g>
<g transform="translate(858,682) scale(3.7766666666667)"><rect width="6" height="6"></rect></g>
<g transform="translate(880,682) scale(3.7766666666667)"><rect width="6" height="6"></rect></g>
<g transform="translate(924,682) scale(3.7766666666667)"><rect width="6" height="6"></rect></g>
<g transform="translate(44,704) scale(3.7766666666667)"><rect width="6" height="6"></rect></g>
<g transform="translate(88,704) scale(3.7766666666667)"><rect width="6" height="6"></rect></g>
<g transform="translate(110,704) scale(3.7766666666667)"><rect width="6" height="6"></rect></g>
<g transform="translate(132,704) scale(3.7766666666667)"><rect width="6" height="6"></rect></g>
<g transform="translate(154,704) scale(3.7766666666667)"><rect width="6" height="6"></rect></g>
<g transform="translate(176,704) scale(3.7766666666667)"><rect width="6" height="6"></rect></g>
<g transform="translate(198,704) scale(3.7766666666667)"><rect width="6" height="6"></rect></g>
<g transform="translate(264,704) scale(3.7766666666667)"><rect width="6" height="6"></rect></g>
<g transform="translate(308,704) scale(3.7766666666667)"><rect width="6" height="6"></rect></g>
<g transform="translate(374,704) scale(3.7766666666667)"><rect width="6" height="6"></rect></g>
<g transform="translate(396,704) scale(3.7766666666667)"><rect width="6" height="6"></rect></g>
<g transform="translate(418,704) scale(3.7766666666667)"><rect width="6" height="6"></rect></g>
<g transform="translate(440,704) scale(3.7766666666667)"><rect width="6" height="6"></rect></g>
<g transform="translate(506,704) scale(3.7766666666667)"><rect width="6" height="6"></rect></g>
<g transform="translate(528,704) scale(3.7766666666667)"><rect width="6" height="6"></rect></g>
<g transform="translate(572,704) scale(3.7766666666667)"><rect width="6" height="6"></rect></g>
<g transform="translate(594,704) scale(3.7766666666667)"><rect width="6" height="6"></rect></g>
<g transform="translate(616,704) scale(3.7766666666667)"><rect width="6" height="6"></rect></g>
<g transform="translate(682,704) scale(3.7766666666667)"><rect width="6" height="6"></rect></g>
<g transform="translate(704,704) scale(3.7766666666667)"><rect width="6" height="6"></rect></g>
<g transform="translate(748,704) scale(3.7766666666667)"><rect width="6" height="6"></rect></g>
<g transform="translate(770,704) scale(3.7766666666667)"><rect width="6" height="6"></rect></g>
<g transform="translate(792,704) scale(3.7766666666667)"><rect width="6" height="6"></rect></g>
<g transform="translate(814,704) scale(3.7766666666667)"><rect width="6" height="6"></rect></g>
<g transform="translate(836,704) scale(3.7766666666667)"><rect width="6" height="6"></rect></g>
<g transform="translate(858,704) scale(3.7766666666667)"><rect width="6" height="6"></rect></g>
<g transform="translate(880,704) scale(3.7766666666667)"><rect width="6" height="6"></rect></g>
<g transform="translate(44,726) scale(3.7766666666667)"><rect width="6" height="6"></rect></g>
<g transform="translate(110,726) scale(3.7766666666667)"><rect width="6" height="6"></rect></g>
<g transform="translate(242,726) scale(3.7766666666667)"><rect width="6" height="6"></rect></g>
<g transform="translate(286,726) scale(3.7766666666667)"><rect width="6" height="6"></rect></g>
<g transform="translate(308,726) scale(3.7766666666667)"><rect width="6" height="6"></rect></g>
<g transform="translate(352,726) scale(3.7766666666667)"><rect width="6" height="6"></rect></g>
<g transform="translate(396,726) scale(3.7766666666667)"><rect width="6" height="6"></rect></g>
<g transform="translate(418,726) scale(3.7766666666667)"><rect width="6" height="6"></rect></g>
<g transform="translate(440,726) scale(3.7766666666667)"><rect width="6" height="6"></rect></g>
<g transform="translate(462,726) scale(3.7766666666667)"><rect width="6" height="6"></rect></g>
<g transform="translate(484,726) scale(3.7766666666667)"><rect width="6" height="6"></rect></g>
<g transform="translate(528,726) scale(3.7766666666667)"><rect width="6" height="6"></rect></g>
<g transform="translate(550,726) scale(3.7766666666667)"><rect width="6" height="6"></rect></g>
<g transform="translate(572,726) scale(3.7766666666667)"><rect width="6" height="6"></rect></g>
<g transform="translate(616,726) scale(3.7766666666667)"><rect width="6" height="6"></rect></g>
<g transform="translate(660,726) scale(3.7766666666667)"><rect width="6" height="6"></rect></g>
<g transform="translate(704,726) scale(3.7766666666667)"><rect width="6" height="6"></rect></g>
<g transform="translate(770,726) scale(3.7766666666667)"><rect width="6" height="6"></rect></g>
<g transform="translate(792,726) scale(3.7766666666667)"><rect width="6" height="6"></rect></g>
<g transform="translate(814,726) scale(3.7766666666667)"><rect width="6" height="6"></rect></g>
<g transform="translate(858,726) scale(3.7766666666667)"><rect width="6" height="6"></rect></g>
<g transform="translate(44,748) scale(3.7766666666667)"><rect width="6" height="6"></rect></g>
<g transform="translate(88,748) scale(3.7766666666667)"><rect width="6" height="6"></rect></g>
<g transform="translate(110,748) scale(3.7766666666667)"><rect width="6" height="6"></rect></g>
<g transform="translate(132,748) scale(3.7766666666667)"><rect width="6" height="6"></rect></g>
<g transform="translate(154,748) scale(3.7766666666667)"><rect width="6" height="6"></rect></g>
<g transform="translate(176,748) scale(3.7766666666667)"><rect width="6" height="6"></rect></g>
<g transform="translate(198,748) scale(3.7766666666667)"><rect width="6" height="6"></rect></g>
<g transform="translate(242,748) scale(3.7766666666667)"><rect width="6" height="6"></rect></g>
<g transform="translate(264,748) scale(3.7766666666667)"><rect width="6" height="6"></rect></g>
<g transform="translate(308,748) scale(3.7766666666667)"><rect width="6" height="6"></rect></g>
<g transform="translate(374,748) scale(3.7766666666667)"><rect width="6" height="6"></rect></g>
<g transform="translate(462,748) scale(3.7766666666667)"><rect width="6" height="6"></rect></g>
<g transform="translate(484,748) scale(3.7766666666667)"><rect width="6" height="6"></rect></g>
<g transform="translate(506,748) scale(3.7766666666667)"><rect width="6" height="6"></rect></g>
<g transform="translate(528,748) scale(3.7766666666667)"><rect width="6" height="6"></rect></g>
<g transform="translate(550,748) scale(3.7766666666667)"><rect width="6" height="6"></rect></g>
<g transform="translate(594,748) scale(3.7766666666667)"><rect width="6" height="6"></rect></g>
<g transform="translate(660,748) scale(3.7766666666667)"><rect width="6" height="6"></rect></g>
<g transform="translate(682,748) scale(3.7766666666667)"><rect width="6" height="6"></rect></g>
<g transform="translate(748,748) scale(3.7766666666667)"><rect width="6" height="6"></rect></g>
<g transform="translate(770,748) scale(3.7766666666667)"><rect width="6" height="6"></rect></g>
<g transform="translate(792,748) scale(3.7766666666667)"><rect width="6" height="6"></rect></g>
<g transform="translate(814,748) scale(3.7766666666667)"><rect width="6" height="6"></rect></g>
<g transform="translate(836,748) scale(3.7766666666667)"><rect width="6" height="6"></rect></g>
<g transform="translate(880,748) scale(3.7766666666667)"><rect width="6" height="6"></rect></g>
<g transform="translate(220,770) scale(3.7766666666667)"><rect width="6" height="6"></rect></g>
<g transform="translate(264,770) scale(3.7766666666667)"><rect width="6" height="6"></rect></g>
<g transform="translate(308,770) scale(3.7766666666667)"><rect width="6" height="6"></rect></g>
<g transform="translate(330,770) scale(3.7766666666667)"><rect width="6" height="6"></rect></g>
<g transform="translate(352,770) scale(3.7766666666667)"><rect width="6" height="6"></rect></g>
<g transform="translate(484,770) scale(3.7766666666667)"><rect width="6" height="6"></rect></g>
<g transform="translate(550,770) scale(3.7766666666667)"><rect width="6" height="6"></rect></g>
<g transform="translate(660,770) scale(3.7766666666667)"><rect width="6" height="6"></rect></g>
<g transform="translate(704,770) scale(3.7766666666667)"><rect width="6" height="6"></rect></g>
<g transform="translate(748,770) scale(3.7766666666667)"><rect width="6" height="6"></rect></g>
<g transform="translate(836,770) scale(3.7766666666667)"><rect width="6" height="6"></rect></g>
<g transform="translate(858,770) scale(3.7766666666667)"><rect width="6" height="6"></rect></g>
<g transform="translate(880,770) scale(3.7766666666667)"><rect width="6" height="6"></rect></g>
<g transform="translate(902,770) scale(3.7766666666667)"><rect width="6" height="6"></rect></g>
<g transform="translate(924,770) scale(3.7766666666667)"><rect width="6" height="6"></rect></g>
<g transform="translate(242,792) scale(3.7766666666667)"><rect width="6" height="6"></rect></g>
<g transform="translate(308,792) scale(3.7766666666667)"><rect width="6" height="6"></rect></g>
<g transform="translate(374,792) scale(3.7766666666667)"><rect width="6" height="6"></rect></g>
<g transform="translate(418,792) scale(3.7766666666667)"><rect width="6" height="6"></rect></g>
<g transform="translate(440,792) scale(3.7766666666667)"><rect width="6" height="6"></rect></g>
<g transform="translate(638,792) scale(3.7766666666667)"><rect width="6" height="6"></rect></g>
<g transform="translate(660,792) scale(3.7766666666667)"><rect width="6" height="6"></rect></g>
<g transform="translate(704,792) scale(3.7766666666667)"><rect width="6" height="6"></rect></g>
<g transform="translate(726,792) scale(3.7766666666667)"><rect width="6" height="6"></rect></g>
<g transform="translate(748,792) scale(3.7766666666667)"><rect width="6" height="6"></rect></g>
<g transform="translate(792,792) scale(3.7766666666667)"><rect width="6" height="6"></rect></g>
<g transform="translate(836,792) scale(3.7766666666667)"><rect width="6" height="6"></rect></g>
<g transform="translate(858,792) scale(3.7766666666667)"><rect width="6" height="6"></rect></g>
<g transform="translate(902,792) scale(3.7766666666667)"><rect width="6" height="6"></rect></g>
<g transform="translate(242,814) scale(3.7766666666667)"><rect width="6" height="6"></rect></g>
<g transform="translate(264,814) scale(3.7766666666667)"><rect width="6" height="6"></rect></g>
<g transform="translate(286,814) scale(3.7766666666667)"><rect width="6" height="6"></rect></g>
<g transform="translate(352,814) scale(3.7766666666667)"><rect width="6" height="6"></rect></g>
<g transform="translate(396,814) scale(3.7766666666667)"><rect width="6" height="6"></rect></g>
<g transform="translate(462,814) scale(3.7766666666667)"><rect width="6" height="6"></rect></g>
<g transform="translate(528,814) scale(3.7766666666667)"><rect width="6" height="6"></rect></g>
<g transform="translate(550,814) scale(3.7766666666667)"><rect width="6" height="6"></rect></g>
<g transform="translate(616,814) scale(3.7766666666667)"><rect width="6" height="6"></rect></g>
<g transform="translate(660,814) scale(3.7766666666667)"><rect width="6" height="6"></rect></g>
<g transform="translate(726,814) scale(3.7766666666667)"><rect width="6" height="6"></rect></g>
<g transform="translate(748,814) scale(3.7766666666667)"><rect width="6" height="6"></rect></g>
<g transform="translate(836,814) scale(3.7766666666667)"><rect width="6" height="6"></rect></g>
<g transform="translate(858,814) scale(3.7766666666667)"><rect width="6" height="6"></rect></g>
<g transform="translate(902,814) scale(3.7766666666667)"><rect width="6" height="6"></rect></g>
<g transform="translate(924,814) scale(3.7766666666667)"><rect width="6" height="6"></rect></g>
<g transform="translate(220,836) scale(3.7766666666667)"><rect width="6" height="6"></rect></g>
<g transform="translate(264,836) scale(3.7766666666667)"><rect width="6" height="6"></rect></g>
<g transform="translate(286,836) scale(3.7766666666667)"><rect width="6" height="6"></rect></g>
<g transform="translate(330,836) scale(3.7766666666667)"><rect width="6" height="6"></rect></g>
<g transform="translate(374,836) scale(3.7766666666667)"><rect width="6" height="6"></rect></g>
<g transform="translate(418,836) scale(3.7766666666667)"><rect width="6" height="6"></rect></g>
<g transform="translate(440,836) scale(3.7766666666667)"><rect width="6" height="6"></rect></g>
<g transform="translate(484,836) scale(3.7766666666667)"><rect width="6" height="6"></rect></g>
<g transform="translate(506,836) scale(3.7766666666667)"><rect width="6" height="6"></rect></g>
<g transform="translate(572,836) scale(3.7766666666667)"><rect width="6" height="6"></rect></g>
<g transform="translate(594,836) scale(3.7766666666667)"><rect width="6" height="6"></rect></g>
<g transform="translate(616,836) scale(3.7766666666667)"><rect width="6" height="6"></rect></g>
<g transform="translate(704,836) scale(3.7766666666667)"><rect width="6" height="6"></rect></g>
<g transform="translate(748,836) scale(3.7766666666667)"><rect width="6" height="6"></rect></g>
<g transform="translate(770,836) scale(3.7766666666667)"><rect width="6" height="6"></rect></g>
<g transform="translate(792,836) scale(3.7766666666667)"><rect width="6" height="6"></rect></g>
<g transform="translate(814,836) scale(3.7766666666667)"><rect width="6" height="6"></rect></g>
<g transform="translate(836,836) scale(3.7766666666667)"><rect width="6" height="6"></rect></g>
<g transform="translate(858,836) scale(3.7766666666667)"><rect width="6" height="6"></rect></g>
<g transform="translate(880,836) scale(3.7766666666667)"><rect width="6" height="6"></rect></g>
<g transform="translate(902,836) scale(3.7766666666667)"><rect width="6" height="6"></rect></g>
<g transform="translate(220,858) scale(3.7766666666667)"><rect width="6" height="6"></rect></g>
<g transform="translate(242,858) scale(3.7766666666667)"><rect width="6" height="6"></rect></g>
<g transform="translate(286,858) scale(3.7766666666667)"><rect width="6" height="6"></rect></g>
<g transform="translate(308,858) scale(3.7766666666667)"><rect width="6" height="6"></rect></g>
<g transform="translate(330,858) scale(3.7766666666667)"><rect width="6" height="6"></rect></g>
<g transform="translate(352,858) scale(3.7766666666667)"><rect width="6" height="6"></rect></g>
<g transform="translate(462,858) scale(3.7766666666667)"><rect width="6" height="6"></rect></g>
<g transform="translate(484,858) scale(3.7766666666667)"><rect width="6" height="6"></rect></g>
<g transform="translate(550,858) scale(3.7766666666667)"><rect width="6" height="6"></rect></g>
<g transform="translate(572,858) scale(3.7766666666667)"><rect width="6" height="6"></rect></g>
<g transform="translate(616,858) scale(3.7766666666667)"><rect width="6" height="6"></rect></g>
<g transform="translate(638,858) scale(3.7766666666667)"><rect width="6" height="6"></rect></g>
<g transform="translate(660,858) scale(3.7766666666667)"><rect width="6" height="6"></rect></g>
<g transform="translate(726,858) scale(3.7766666666667)"><rect width="6" height="6"></rect></g>
<g transform="translate(770,858) scale(3.7766666666667)"><rect width="6" height="6"></rect></g>
<g transform="translate(814,858) scale(3.7766666666667)"><rect width="6" height="6"></rect></g>
<g transform="translate(858,858) scale(3.7766666666667)"><rect width="6" height="6"></rect></g>
<g transform="translate(880,858) scale(3.7766666666667)"><rect width="6" height="6"></rect></g>
<g transform="translate(924,858) scale(3.7766666666667)"><rect width="6" height="6"></rect></g>
<g transform="translate(220,880) scale(3.7766666666667)"><rect width="6" height="6"></rect></g>
<g transform="translate(242,880) scale(3.7766666666667)"><rect width="6" height="6"></rect></g>
<g transform="translate(264,880) scale(3.7766666666667)"><rect width="6" height="6"></rect></g>
<g transform="translate(330,880) scale(3.7766666666667)"><rect width="6" height="6"></rect></g>
<g transform="translate(484,880) scale(3.7766666666667)"><rect width="6" height="6"></rect></g>
<g transform="translate(528,880) scale(3.7766666666667)"><rect width="6" height="6"></rect></g>
<g transform="translate(616,880) scale(3.7766666666667)"><rect width="6" height="6"></rect></g>
<g transform="translate(638,880) scale(3.7766666666667)"><rect width="6" height="6"></rect></g>
<g transform="translate(660,880) scale(3.7766666666667)"><rect width="6" height="6"></rect></g>
<g transform="translate(770,880) scale(3.7766666666667)"><rect width="6" height="6"></rect></g>
<g transform="translate(792,880) scale(3.7766666666667)"><rect width="6" height="6"></rect></g>
<g transform="translate(814,880) scale(3.7766666666667)"><rect width="6" height="6"></rect></g>
<g transform="translate(836,880) scale(3.7766666666667)"><rect width="6" height="6"></rect></g>
<g transform="translate(880,880) scale(3.7766666666667)"><rect width="6" height="6"></rect></g>
<g transform="translate(902,880) scale(3.7766666666667)"><rect width="6" height="6"></rect></g>
<g transform="translate(264,902) scale(3.7766666666667)"><rect width="6" height="6"></rect></g>
<g transform="translate(330,902) scale(3.7766666666667)"><rect width="6" height="6"></rect></g>
<g transform="translate(352,902) scale(3.7766666666667)"><rect width="6" height="6"></rect></g>
<g transform="translate(374,902) scale(3.7766666666667)"><rect width="6" height="6"></rect></g>
<g transform="translate(396,902) scale(3.7766666666667)"><rect width="6" height="6"></rect></g>
<g transform="translate(440,902) scale(3.7766666666667)"><rect width="6" height="6"></rect></g>
<g transform="translate(506,902) scale(3.7766666666667)"><rect width="6" height="6"></rect></g>
<g transform="translate(550,902) scale(3.7766666666667)"><rect width="6" height="6"></rect></g>
<g transform="translate(594,902) scale(3.7766666666667)"><rect width="6" height="6"></rect></g>
<g transform="translate(638,902) scale(3.7766666666667)"><rect width="6" height="6"></rect></g>
<g transform="translate(660,902) scale(3.7766666666667)"><rect width="6" height="6"></rect></g>
<g transform="translate(704,902) scale(3.7766666666667)"><rect width="6" height="6"></rect></g>
<g transform="translate(726,902) scale(3.7766666666667)"><rect width="6" height="6"></rect></g>
<g transform="translate(748,902) scale(3.7766666666667)"><rect width="6" height="6"></rect></g>
<g transform="translate(770,902) scale(3.7766666666667)"><rect width="6" height="6"></rect></g>
<g transform="translate(836,902) scale(3.7766666666667)"><rect width="6" height="6"></rect></g>
<g transform="translate(858,902) scale(3.7766666666667)"><rect width="6" height="6"></rect></g>
<g transform="translate(902,902) scale(3.7766666666667)"><rect width="6" height="6"></rect></g>
<g transform="translate(242,924) scale(3.7766666666667)"><rect width="6" height="6"></rect></g>
<g transform="translate(264,924) scale(3.7766666666667)"><rect width="6" height="6"></rect></g>
<g transform="translate(286,924) scale(3.7766666666667)"><rect width="6" height="6"></rect></g>
<g transform="translate(330,924) scale(3.7766666666667)"><rect width="6" height="6"></rect></g>
<g transform="translate(484,924) scale(3.7766666666667)"><rect width="6" height="6"></rect></g>
<g transform="translate(506,924) scale(3.7766666666667)"><rect width="6" height="6"></rect></g>
<g transform="translate(528,924) scale(3.7766666666667)"><rect width="6" height="6"></rect></g>
<g transform="translate(594,924) scale(3.7766666666667)"><rect width="6" height="6"></rect></g>
<g transform="translate(616,924) scale(3.7766666666667)"><rect width="6" height="6"></rect></g>
<g transform="translate(638,924) scale(3.7766666666667)"><rect width="6" height="6"></rect></g>
<g transform="translate(682,924) scale(3.7766666666667)"><rect width="6" height="6"></rect></g>
<g transform="translate(726,924) scale(3.7766666666667)"><rect width="6" height="6"></rect></g>
<g transform="translate(814,924) scale(3.7766666666667)"><rect width="6" height="6"></rect></g>
<g transform="translate(836,924) scale(3.7766666666667)"><rect width="6" height="6"></rect></g>
<g transform="translate(880,924) scale(3.7766666666667)"><rect width="6" height="6"></rect></g>
</g><g><g transform="translate(44,44)" fill="#000000"><g transform="scale(11)"><path d="M0,0v14h14V0H0z M12,12H2V2h10V12z"></path></g></g>
<g transform="translate(792,44)" fill="#000000"><g transform="scale(11)"><path d="M0,0v14h14V0H0z M12,12H2V2h10V12z"></path></g></g>
<g transform="translate(44,792)" fill="#000000"><g transform="scale(11)"><path d="M0,0v14h14V0H0z M12,12H2V2h10V12z"></path></g></g>
<g transform="translate(88,88)" fill="#000000"><g transform="scale(11)"><rect width="6" height="6"></rect></g></g>
<g transform="translate(836,88)" fill="#000000"><g transform="scale(11)"><rect width="6" height="6"></rect></g></g>
<g transform="translate(88,836)" fill="#000000"><g transform="scale(11)"><rect width="6" height="6"></rect></g></g></g>
</svg>